<svg width="17" height="20" viewBox="0 0 17 20" fill="none" xmlns="http://www.w3.org/2000/svg">
<path d="M13.6185 10.6362C13.5958 8.10953 15.6916 6.8803 15.7875 6.82307C14.6005 5.09603 12.7607 4.86007 12.1142 4.84125C10.569 4.67897 9.07015 5.76396 8.28302 5.76396C7.48018 5.76396 6.26806 4.85693 4.96167 4.88358C3.28057 4.90945 1.70788 5.88076 0.845338 7.38908C-0.934742 10.4645 0.392855 14.984 2.09831 17.4699C2.95143 18.6873 3.9483 20.0467 5.25312 19.9989C6.52965 19.9463 7.00649 19.1867 8.54697 19.1867C10.0733 19.1867 10.5211 19.9989 11.8518 19.9683C13.2218 19.9463 14.0844 18.7453 14.9077 17.5169C15.8935 16.1215 16.2895 14.7472 16.3052 14.6767C16.273 14.6657 13.6445 13.6646 13.6185 10.6362Z" fill="#157EF8"/>
<path d="M11.1049 3.20573C11.7915 2.34883 12.2613 1.18304 12.1309 0C11.1371 0.0439033 9.89434 0.68599 9.17869 1.52407C8.54552 2.26259 7.97992 3.47307 8.12603 4.61142C9.24232 4.69452 10.3885 4.0493 11.1049 3.20573Z" fill="#157EF8"/>
</svg>
