<svg width="64" height="22" viewBox="0 0 64 22" fill="none" xmlns="http://www.w3.org/2000/svg">
<path d="M0.446095 2.66683C0.72335 3.00599 0.990171 3.17559 1.24656 3.17565L12.8671 3.14476L0.553726 19.377C0.282152 19.6701 0.133222 20.0563 0.137659 20.4561C0.138521 20.6615 0.181298 20.8645 0.263361 21.0527C0.345423 21.241 0.46504 21.4104 0.614863 21.5506C0.908361 21.8328 1.30096 21.9879 1.70774 21.9824H16.8684C17.1765 21.9824 17.469 21.8077 17.7461 21.4583C18.0028 21.1089 18.1309 20.7594 18.1305 20.4099C18.1305 20.071 18.0024 19.7267 17.7461 19.377C17.4698 19.0279 17.1772 18.8532 16.8684 18.853H5.24887L17.5771 2.60515C17.8595 2.28186 18.0082 1.86281 17.9927 1.43351C18 1.24636 17.9618 1.06022 17.8814 0.891097C17.8011 0.721972 17.6809 0.574907 17.5313 0.46253C17.2754 0.221145 16.9544 0.0603169 16.6081 0L1.55408 0.0458314C1.05143 0.0458314 0.666603 0.225704 0.399598 0.585449C0.139303 0.926146 -0.00118781 1.34349 7.56546e-06 1.77248C7.56546e-06 2.03965 0.148674 2.33764 0.446003 2.66647L0.446095 2.66683ZM43.6359 6.16578C42.9999 6.93679 41.9635 8.30369 40.5265 10.2665C38.0131 13.6886 35.9713 15.9804 34.401 17.1419H34.3853C32.1693 18.7552 29.7684 19.1406 27.1825 18.2982C26.8572 18.1765 26.543 18.0269 26.2434 17.851C25.2077 17.2744 24.3177 16.4676 23.6421 15.4926C22.9566 14.5352 22.4841 13.4418 22.2564 12.2861H37.418C38.0332 12.2861 38.459 12.0549 38.6953 11.5924C38.9109 11.1402 39.0185 10.5902 39.018 9.94247C39.0363 8.21066 38.5728 6.50794 37.6796 5.02495C36.8071 3.56549 35.585 2.34698 34.1239 1.47971C32.6507 0.610159 30.9695 0.157323 29.2595 0.169484C27.3412 0.169484 25.6071 0.662782 24.0572 1.64938C22.5107 2.62209 21.2388 3.97549 20.363 5.58043C19.4493 7.18566 18.9767 9.0048 18.9935 10.8525C18.9779 12.7862 19.4717 14.6898 20.4251 16.3713C21.3648 18.0107 22.7045 19.3845 24.3189 20.364C24.7366 20.6192 25.1682 20.8508 25.6117 21.0577C25.7724 21.1743 25.9487 21.2677 26.1354 21.3351C29.7681 22.5376 33.1441 22.0084 36.2636 19.7474C38.0386 18.4832 40.3165 15.9551 43.0975 12.1629C44.4825 10.2721 45.4882 8.9567 46.1144 8.21674C47.1912 6.89068 48.2019 5.85263 49.1466 5.10259V5.08719C51.2394 3.42241 53.4662 2.91374 55.827 3.56119C56.3477 3.73959 56.844 3.98287 57.3042 4.28532C58.3983 5.0113 59.297 5.99609 59.9207 7.15262C60.5564 8.33115 60.8847 9.65135 60.8752 10.9908C60.8847 12.3304 60.5564 13.6508 59.9207 14.8295C59.4169 15.772 58.7316 16.605 57.9042 17.2805C57.8302 17.3231 57.7584 17.3693 57.689 17.4191C56.6692 18.1573 55.4764 18.6193 54.2261 18.7604C53.0846 18.8764 51.9327 18.6903 50.8855 18.2208C49.8194 17.7567 48.8838 17.0367 48.1614 16.1246V16.1092C47.6034 15.4219 47.1757 14.6381 46.8992 13.7967C46.8339 13.5947 46.7278 13.4083 46.5874 13.2492C46.447 13.0901 46.2754 12.9616 46.0832 12.8718C45.8965 12.7767 45.6927 12.7196 45.4838 12.7038C45.2749 12.6879 45.0649 12.7137 44.866 12.7797C44.6671 12.8456 44.4832 12.9504 44.3249 13.0879C44.1667 13.2254 44.0372 13.393 43.944 13.5809C43.8479 13.7674 43.7902 13.9713 43.7743 14.1805C43.7585 14.3897 43.7847 14.6 43.8515 14.7989C44.2476 16.0032 44.8577 17.126 45.6524 18.113H45.6681C46.7146 19.4357 48.0669 20.4833 49.6082 21.1654C51.1548 21.8486 52.8516 22.1195 54.5337 21.9517C56.319 21.7771 57.9916 21.1348 59.5515 20.0248C59.6992 19.9177 59.829 19.7878 59.9359 19.6398C61.0295 18.7283 61.9431 17.6199 62.6296 16.3719C63.5406 14.7261 64.0125 12.8729 63.9998 10.9913C64.0071 9.56979 63.7349 8.16076 63.1988 6.84455C62.9311 6.19926 62.5958 5.58427 62.1984 5.00992C61.9426 4.61956 61.5376 4.06976 60.9832 3.36054C60.552 2.82602 59.7667 2.2043 58.6274 1.49539C57.7047 0.930009 57.1097 0.601093 56.8426 0.508636C53.4051 -0.519025 50.1728 0.174556 47.1457 2.58938C46.0577 3.45272 44.8878 4.64485 43.6359 6.16578V6.16578ZM34.7398 6.22747C35.3427 7.11419 35.7178 8.13618 35.8319 9.20284H22.3029C22.533 8.13651 22.9898 7.13233 23.6421 6.25864C24.2702 5.37158 25.0911 4.6389 26.043 4.11584C27.0315 3.56753 28.1453 3.28597 29.2751 3.29876C30.3669 3.28681 31.4432 3.55753 32.3997 4.08467C33.3381 4.60349 34.1399 5.33802 34.7394 6.22784L34.7398 6.22747Z" fill="#157EF8"/>
</svg>
