<svg width="17" height="18" viewBox="0 0 17 18" fill="none" xmlns="http://www.w3.org/2000/svg">
<path d="M1.39997 18V18C1.16125 18.0038 1.09194 17.7219 1.26073 17.5531L8.24647 10.5647C8.63712 10.1739 9.2707 10.1741 9.66121 10.565L10.6883 11.5932C11.1562 12.0617 11.0479 12.8474 10.4706 13.1718L2.36497 17.726C2.0718 17.8978 1.73969 17.9921 1.39997 18ZM0.235718 17.3351C0.23586 17.3351 0.235905 17.3349 0.235823 17.3347C0.0721989 17.0383 -0.00922928 16.7035 -3.11402e-05 16.365V1.65998V1.65998C-0.00187609 1.35527 0.357025 1.2591 0.572464 1.47459L7.62603 8.52987C8.01648 8.92041 8.01644 9.55351 7.62595 9.944L0.235305 17.3346C0.235025 17.3349 0.235389 17.3354 0.235718 17.3351V17.3351ZM13.0758 11.7053C12.685 11.9251 12.1958 11.858 11.8787 11.5411L10.2817 9.9452C9.89088 9.55467 9.89082 8.92122 10.2816 8.53062L12.171 6.64174C12.488 6.32491 12.977 6.25762 13.3677 6.47706L15.49 7.66898C16.0242 7.90806 16.3816 8.42382 16.418 9.00798C16.3818 9.59273 16.0239 10.109 15.489 10.348L13.0758 11.7053ZM8.95447 8.61398C8.95415 8.61398 8.95384 8.61385 8.95362 8.61362L1.21302 0.87396C0.897604 0.558578 0.958925 0.0142949 1.40497 0.0139771V0.0139771C1.74131 0.0259197 2.06944 0.121094 2.35997 0.290977L10.761 5.01264C11.3384 5.33719 11.4465 6.12331 10.978 6.59162L8.95532 8.61362C8.9551 8.61385 8.95479 8.61398 8.95447 8.61398V8.61398Z" fill="#157EF8"/>
</svg>
