<svg width="24" height="24" viewBox="0 0 24 24" fill="none" xmlns="http://www.w3.org/2000/svg">
<path d="M21.725 20.3126L18.015 16.6326C19.4551 14.837 20.1525 12.5579 19.9639 10.2639C19.7752 7.96985 18.7147 5.83533 17.0006 4.2992C15.2864 2.76306 13.0488 1.94206 10.748 2.00502C8.44708 2.06798 6.25776 3.01011 4.63018 4.63769C3.0026 6.26527 2.06047 8.45459 1.99751 10.7555C1.93455 13.0564 2.75555 15.2939 4.29169 17.0081C5.82782 18.7222 7.96234 19.7827 10.2563 19.9714C12.5503 20.1601 14.8295 19.4627 16.625 18.0226L20.305 21.7026C20.398 21.7963 20.5086 21.8707 20.6305 21.9214C20.7523 21.9722 20.883 21.9984 21.015 21.9984C21.1471 21.9984 21.2778 21.9722 21.3996 21.9214C21.5215 21.8707 21.6321 21.7963 21.725 21.7026C21.9053 21.5161 22.006 21.2669 22.006 21.0076C22.006 20.7482 21.9053 20.499 21.725 20.3126V20.3126ZM11.015 18.0226C9.63057 18.0226 8.27719 17.612 7.12605 16.8428C5.97491 16.0737 5.0777 14.9804 4.54788 13.7013C4.01807 12.4223 3.87945 11.0148 4.14954 9.65692C4.41964 8.29905 5.08633 7.05177 6.06529 6.0728C7.04426 5.09384 8.29154 4.42715 9.64941 4.15706C11.0073 3.88696 12.4147 4.02558 13.6938 4.5554C14.9729 5.08521 16.0662 5.98242 16.8353 7.13356C17.6045 8.2847 18.015 9.63808 18.015 11.0226C18.015 12.8791 17.2775 14.6595 15.9648 15.9723C14.652 17.2851 12.8716 18.0226 11.015 18.0226V18.0226Z" fill="#323232"/>
</svg>
